<svg width="481" height="200" viewBox="0 0 481 200" fill="none" xmlns="http://www.w3.org/2000/svg">
    <path d="M244 15H222L221.5 188H244V130H252L297 188H321.5V185L270.5 118L316.5 59V56H292.5L251 108.5H244V15Z" fill="#59C1D0"/>
    <path d="M366.5 188C344.1 188 334.5 161 334.5 148V143.5V56H357.5V148C357.5 162.4 369.167 168 375 169H391C404.2 168.2 411.5 155 411.5 148V56H433V188H412.5V177L411.5 175.5C395.5 191 394.5 188 366.5 188Z" fill="#59C1D0"/>
    <path d="M467 14.5C463.167 14.6667 453.4 14.9 445 14.5C444.833 61.8333 444.5 156.8 444.5 158C442.9 188 467.833 190.5 480.5 188V166.5H476.5C467.7 166.5 466.5 160.833 467 158V14.5Z" fill="#59C1D0"/>
    <path d="M244 15H222L221.5 188H244V130H252L297 188H321.5V185L270.5 118L316.5 59V56H292.5L251 108.5H244V15Z"/>
    <path d="M366.5 188C344.1 188 334.5 161 334.5 148V143.5V56H357.5V148C357.5 162.4 369.167 168 375 169H391C404.2 168.2 411.5 155 411.5 148V56H433V188H412.5V177L411.5 175.5C395.5 191 394.5 188 366.5 188Z"/>
    <path d="M467 14.5C463.167 14.6667 453.4 14.9 445 14.5C444.833 61.8333 444.5 156.8 444.5 158C442.9 188 467.833 190.5 480.5 188V166.5H476.5C467.7 166.5 466.5 160.833 467 158V14.5Z"/>
    <path fill-rule="evenodd" clip-rule="evenodd" d="M100 -7.62939e-06C149 -7.62939e-06 200 39.5 200 100C200 164 146 200 100 200C47.5 200 0 158.5 0 100.5C0 35 54.5 -7.62939e-06 100 -7.62939e-06ZM12.5 58C21.1667 40.8333 51.7675 6.76164 101.5 12.5C153.5 18.5 182.226 55.0736 179.5 105.5C177.392 144.5 141 170.5 107.5 170.5C55.9394 170.5 41 123 41 104C41 73 63 41.5 101.5 41.5C150.5 41.5 160.5 95.5 160.5 100.5C163.333 85.1667 157 46.0714 113 28C85 16.5 25.1214 33 12.5 58Z" fill="#59C1D0"/>
</svg>
