<svg width="200" height="200" viewBox="0 0 200 200" fill="none" xmlns="http://www.w3.org/2000/svg">
    <path fill-rule="evenodd" clip-rule="evenodd" d="M100 -7.62939e-06C149 -7.62939e-06 200 39.5 200 100C200 164 146 200 100 200C47.5 200 0 158.5 0 100.5C0 35 54.5 -7.62939e-06 100 -7.62939e-06ZM12.5 58C21.1667 40.8333 51.7675 6.76164 101.5 12.5C153.5 18.5 182.226 55.0736 179.5 105.5C177.392 144.5 141 170.5 107.5 170.5C55.9394 170.5 41 123 41 104C41 73 63 41.5 101.5 41.5C150.5 41.5 160.5 95.5 160.5 100.5C163.333 85.1667 157 46.0714 113 28C85 16.5 25.1214 33 12.5 58Z" fill="#59C1D0"/>
</svg>
